<?xml version="1.0" encoding="utf-8"?><!-- Uploaded to: SVG Repo, www.svgrepo.com, Generator: SVG Repo Mixer Tools -->
<svg width="800px" height="800px" viewBox="0 0 24 24" id="Layer_1" data-name="Layer 1" xmlns="http://www.w3.org/2000/svg"><defs><style>.cls-1{fill:none;stroke:#013a63;stroke-miterlimit:10;stroke-width:1.9px;}</style></defs><path class="cls-1" d="M19.6,21.5,22.45,13v-1.9h-7.6L13,13H1.55v3.8a3.44,3.44,0,0,1,1.9,3.07V21.5"/><polygon class="cls-1" points="14.85 11.05 12.95 12.95 2.5 12.95 3.45 7.25 13.9 7.25 14.85 11.05"/><rect class="cls-1" x="6.3" y="2.5" width="3.8" height="4.75"/><line class="cls-1" x1="5.35" y1="16.75" x2="7.25" y2="16.75"/><line class="cls-1" x1="9.15" y1="16.75" x2="11.05" y2="16.75"/><line class="cls-1" x1="12.95" y1="16.75" x2="14.85" y2="16.75"/><line class="cls-1" x1="16.75" y1="14.85" x2="22.45" y2="14.85"/><line class="cls-1" x1="6.3" y1="10.1" x2="6.3" y2="12.95"/><line class="cls-1" x1="10.1" y1="10.1" x2="10.1" y2="12.95"/><path class="cls-1" d="M18.26,19.64v0a1.92,1.92,0,0,0,.54,1.2,2.12,2.12,0,0,0,3.63-1.2V19.6"/><path class="cls-1" d="M14.08,19.64a2.11,2.11,0,0,0,4.18,0v0"/><path class="cls-1" d="M9.9,19.62A2,2,0,0,0,12,21.45a2,2,0,0,0,2.08-1.81v0"/><path class="cls-1" d="M9.9,19.6v0a2,2,0,0,1-2.08,1.81,2,2,0,0,1-2.09-1.82"/><path class="cls-1" d="M5.73,19.6h0a1.84,1.84,0,0,1-.56,1.21,2.12,2.12,0,0,1-3.62-1.21h0"/></svg>