<?xml version="1.0" encoding="utf-8"?><!-- Uploaded to: SVG Repo, www.svgrepo.com, Generator: SVG Repo Mixer Tools -->
<svg width="800px" height="800px" viewBox="0 0 24 24" fill="none" xmlns="http://www.w3.org/2000/svg">
<path fill-rule="evenodd" clip-rule="evenodd" d="M17.55 8.514C17.6719 15.345 13.6909 18.251 11.4338 18.936C11.2843 18.9815 11.1251 18.9815 10.9756 18.936C8.7555 18.262 4.88865 15.442 4.875 8.854C4.88825 8.28396 5.20123 7.76591 5.69302 7.5C9.12892 5.514 10.7815 5 11.2018 5C11.622 5 13.4053 5.548 17.0693 7.7C17.3578 7.86595 17.5402 8.17493 17.55 8.514Z" stroke="#4f5d75" stroke-width="1.5" stroke-linecap="round" stroke-linejoin="round"/>
<path d="M11.2125 14.107C10.7983 14.107 10.4625 14.4428 10.4625 14.857C10.4625 15.2712 10.7983 15.607 11.2125 15.607V14.107ZM10.1156 11.2L10.6619 10.6861C10.6361 10.6587 10.6083 10.6333 10.5787 10.61L10.1156 11.2ZM9.75 10.4L10.4994 10.4299C10.4998 10.42 10.5 10.41 10.5 10.4L9.75 10.4ZM11.2125 9.893C11.6267 9.893 11.9625 9.55721 11.9625 9.143C11.9625 8.72879 11.6267 8.393 11.2125 8.393V9.893ZM11.2125 15.607C11.6267 15.607 11.9625 15.2712 11.9625 14.857C11.9625 14.4428 11.6267 14.107 11.2125 14.107V15.607ZM10.5 12.95C10.5 12.5358 10.1642 12.2 9.75002 12.2C9.33581 12.2 9.00002 12.5358 9.00002 12.95H10.5ZM11.9625 14.857C11.9625 14.4428 11.6267 14.107 11.2125 14.107C10.7983 14.107 10.4625 14.4428 10.4625 14.857H11.9625ZM10.4625 16C10.4625 16.4142 10.7983 16.75 11.2125 16.75C11.6267 16.75 11.9625 16.4142 11.9625 16H10.4625ZM11.2125 8.393C10.7983 8.393 10.4625 8.72879 10.4625 9.143C10.4625 9.55721 10.7983 9.893 11.2125 9.893V8.393ZM11.925 10.889C11.925 11.3032 12.2608 11.639 12.675 11.639C13.0892 11.639 13.425 11.3032 13.425 10.889H11.925ZM10.4625 9.143C10.4625 9.55721 10.7983 9.893 11.2125 9.893C11.6267 9.893 11.9625 9.55721 11.9625 9.143H10.4625ZM11.9625 8C11.9625 7.58579 11.6267 7.25 11.2125 7.25C10.7983 7.25 10.4625 7.58579 10.4625 8H11.9625ZM11.2125 15.607C11.5582 15.607 12.0717 15.5214 12.5251 15.237C13.0183 14.9276 13.425 14.3844 13.425 13.585H11.925C11.925 13.7132 11.8958 13.7858 11.8701 13.8291C11.8423 13.876 11.798 13.9224 11.728 13.9663C11.572 14.0641 11.3543 14.107 11.2125 14.107V15.607ZM13.425 13.585C13.425 13.0977 13.2853 12.6875 13.0175 12.349C12.7695 12.0356 12.4464 11.8302 12.1755 11.6772C11.5816 11.3417 11.1076 11.1599 10.6619 10.6861L9.56935 11.7139C10.2205 12.4061 11.0262 12.7508 11.4377 12.9833C11.6696 13.1143 11.7807 13.2033 11.8412 13.2798C11.8819 13.3312 11.925 13.4063 11.925 13.585H13.425ZM10.5787 10.61C10.53 10.5718 10.4964 10.5057 10.4994 10.4299L9.0006 10.3701C8.97872 10.918 9.21793 11.4488 9.65257 11.79L10.5787 10.61ZM10.5 10.4C10.5 10.2022 10.5396 10.1073 10.5619 10.0682C10.5823 10.0322 10.6087 10.0063 10.6543 9.98168C10.7782 9.91488 10.9729 9.893 11.2125 9.893V8.393C10.9646 8.393 10.428 8.39962 9.94255 8.66132C9.68345 8.80099 9.43566 9.01425 9.25804 9.32654C9.08225 9.6356 9 9.99782 9 10.4H10.5ZM11.2125 14.107C11.1369 14.107 10.9618 14.0697 10.8118 13.9289C10.6824 13.8075 10.5 13.5418 10.5 12.95H9.00002C9.00002 13.8842 9.3051 14.572 9.78516 15.0226C10.2445 15.4538 10.8006 15.607 11.2125 15.607V14.107ZM10.4625 14.857V16H11.9625V14.857H10.4625ZM11.2125 9.893C11.3642 9.893 11.5352 9.93033 11.6557 10.0275C11.7449 10.0995 11.925 10.2975 11.925 10.889H13.425C13.425 9.95454 13.1176 9.27955 12.5974 8.85997C12.1085 8.46567 11.5483 8.393 11.2125 8.393V9.893ZM11.9625 9.143V8H10.4625V9.143H11.9625Z" fill="#4f5d75"/>
</svg>